<svg xmlns="http://www.w3.org/2000/svg" viewBox="0 0 41 33" width="41" height="33">
	<style>
		tspan { white-space:pre }
		.shp0 { fill: #464646 } 
	</style>
	<g id="Static-blocks">
		<g id="Special offers">
			<path id="diamond" class="shp0" d="M1.12 11.45L12.6 11.45L20.29 32.95L1.12 11.45ZM14.68 11.45L27.31 11.45L21.47 33L14.68 11.45ZM40.96 11.45L29.57 11.45L22.5 32.95L40.96 11.45ZM35.47 1.49L41 10.04L29.93 10.04L35.47 1.49ZM28.19 9.84L33.73 1L22.66 1L28.19 9.84ZM20.96 1.49L26.49 10.04L15.42 10.04L20.96 1.49ZM13.81 9.84L19.34 1L8.27 1L13.81 9.84ZM6.53 1.49L12.07 10.04L1 10.04L6.53 1.49Z" />
		</g>
	</g>
</svg>