<svg xmlns="http://www.w3.org/2000/svg" viewBox="0 0 33 41" width="33" height="41">
	<style>
		tspan { white-space:pre }
		.shp0 { fill: #464646 } 
	</style>
	<g id="Static-blocks">
		<g id="Fastest Shipping">
			<path id="rocket" class="shp0" d="M26.78 38.17C26.78 38.17 27.22 35.86 24.48 33.05C27.15 26.58 27.52 20.7 27.52 20.7C27.52 20.7 33 21.78 33 26.46C33 34.46 26.78 38.17 26.78 38.17ZM11.67 35.36C11.67 35.36 8 25.18 8 20.95C8 19.06 8.24 17.36 8.63 15.83L25.36 15.83C25.74 17.37 25.99 19.06 25.99 20.96C25.99 25.12 22.33 35.36 22.33 35.36L11.67 35.36ZM16.99 18.16C15.11 18.16 13.58 19.48 13.58 21.1C13.58 22.73 15.11 24.05 16.99 24.05C18.87 24.05 20.39 22.73 20.39 21.1C20.39 19.48 18.87 18.16 16.99 18.16ZM16.25 5.01L16.25 1L17.58 1L17.58 4.91C19.1 5.86 23.2 8.89 25.05 14.73L8.93 14.73C10.72 9.05 14.62 6.05 16.25 5.01ZM7.22 38.17C7.22 38.17 1 34.46 1 26.46C1 21.78 6.48 20.7 6.48 20.7C6.48 20.7 6.85 26.58 9.52 33.05C6.78 35.86 7.22 38.17 7.22 38.17ZM19.24 38.76L18.13 37.8L16.95 41L15.54 37.8L14.58 39.46L13.17 36.45L20.8 36.45L19.24 38.76Z" />
		</g>
	</g>
</svg>